<svg width="32" height="28" viewBox="0 0 32 28" fill="none" xmlns="http://www.w3.org/2000/svg">
<g clip-path="url(#clip0_5_131)">
<path d="M14.1609 4.92628V21.8013M8.78733 8.30128H5.9425M9.7356 11.6763H5.9425M26.8046 17.5825V4.00378C26.8046 2.65378 25.5655 1.65253 24.0609 1.76503H23.985C21.3299 1.96753 17.2965 3.17128 15.0459 4.43128L14.831 4.55503C14.4643 4.75753 13.8574 4.75753 13.4908 4.55503L13.1747 4.38628C10.9241 3.13753 6.90342 1.94503 4.24825 1.75378C2.74365 1.64128 1.51721 2.65378 1.51721 3.99253V17.5825C1.51721 18.6625 2.50342 19.675 3.71721 19.81L4.08388 19.855C6.82756 20.1813 11.0632 21.4188 13.4908 22.6L13.5414 22.6225C13.8827 22.7913 14.4264 22.7913 14.7551 22.6225C17.1827 21.43 21.431 20.1813 24.1873 19.855L24.6046 19.81C25.8184 19.675 26.8046 18.6625 26.8046 17.5825V17.5825Z" stroke="black" stroke-width="1.5" stroke-linecap="round" stroke-linejoin="round"/>
</g>
<defs>
<clipPath id="clip0_5_131">
<rect width="30.3448" height="27" fill="white" transform="translate(0.988525 0.75)"/>
</clipPath>
</defs>
</svg>
