<svg width="32" height="28" viewBox="0 0 32 28" fill="none" xmlns="http://www.w3.org/2000/svg">
<path d="M13.3679 5.9375V21.125C13.3679 22.34 12.8116 23.4538 11.9266 24.2638L11.876 24.3087C11.7622 24.41 11.6357 24.5112 11.522 24.59C11.1426 24.8825 10.7128 25.1075 10.2702 25.265C10.1312 25.3213 9.99207 25.3662 9.85299 25.4112C9.35989 25.5575 8.82885 25.625 8.31046 25.625C7.96908 25.625 7.6277 25.5913 7.29897 25.535C7.1346 25.5013 6.97023 25.4675 6.80586 25.4225C6.60357 25.3662 6.41391 25.31 6.22425 25.2312C6.22425 25.22 6.22426 25.22 6.21161 25.2312C5.85759 25.0737 5.51621 24.8937 5.20012 24.68L5.18747 24.6687C5.02311 24.5562 4.87138 24.4437 4.7323 24.3087C4.59322 24.1737 4.45414 24.0387 4.31506 23.8925C4.07483 23.6112 3.87253 23.3075 3.69552 22.9925C3.70816 22.9812 3.70816 22.9812 3.69552 22.9812C3.69552 22.9812 3.69552 22.97 3.68288 22.9587C3.60701 22.8012 3.5438 22.6325 3.48058 22.4638C3.43251 22.3189 3.39034 22.1726 3.35414 22.025C3.29092 21.7325 3.25299 21.4288 3.25299 21.125V5.9375C3.25299 4.25 4.51736 3.125 6.41391 3.125H10.207C12.1036 3.125 13.3679 4.25 13.3679 5.9375Z" stroke="black" stroke-width="1.5" stroke-linecap="round" stroke-linejoin="round"/>
<path d="M28.5404 19.4375V22.8125C28.5404 24.5 27.276 25.625 25.3794 25.625H8.31048C8.82887 25.625 9.3599 25.5575 9.853 25.4112C9.99209 25.3662 10.1312 25.3213 10.2702 25.265C10.7128 25.1075 11.1427 24.8825 11.522 24.59C11.6358 24.5112 11.7622 24.41 11.876 24.3087L11.9266 24.2638L20.5243 16.625H25.3794C27.276 16.625 28.5404 17.75 28.5404 19.4375V19.4375ZM6.80588 25.4225C6.04726 25.22 5.32657 24.8487 4.73231 24.3087C4.12542 23.78 3.70818 23.1388 3.48059 22.4638C3.72604 23.1588 4.15657 23.7907 4.73553 24.3059C5.3145 24.821 6.02476 25.2041 6.80588 25.4225V25.4225Z" stroke="black" stroke-width="1.5" stroke-linecap="round" stroke-linejoin="round"/>
<path d="M23.9507 13.5763L20.5242 16.625L11.9265 24.2638C12.8116 23.4538 13.3679 22.34 13.3679 21.125V10.2575L16.7944 7.20877C18.1346 6.01627 19.93 6.01627 21.2702 7.20877L23.9507 9.59377C25.2909 10.7863 25.2909 12.3838 23.9507 13.5763ZM8.31045 22.25C8.64578 22.25 8.96738 22.1315 9.20449 21.9205C9.44161 21.7095 9.57482 21.4234 9.57482 21.125C9.57482 20.8266 9.44161 20.5405 9.20449 20.3295C8.96738 20.1185 8.64578 20 8.31045 20C7.97512 20 7.65352 20.1185 7.41641 20.3295C7.17929 20.5405 7.04608 20.8266 7.04608 21.125C7.04608 21.4234 7.17929 21.7095 7.41641 21.9205C7.65352 22.1315 7.97512 22.25 8.31045 22.25Z" stroke="black" stroke-width="1.5" stroke-linecap="round" stroke-linejoin="round"/>
</svg>
