<svg width="32" height="28" viewBox="0 0 32 28" fill="none" xmlns="http://www.w3.org/2000/svg">
<path d="M16.1035 17.5C17.1095 17.5 18.0743 17.1444 18.7856 16.5115C19.4969 15.8786 19.8966 15.0201 19.8966 14.125C19.8966 13.2299 19.4969 12.3714 18.7856 11.7385C18.0743 11.1056 17.1095 10.75 16.1035 10.75C15.0975 10.75 14.1327 11.1056 13.4213 11.7385C12.71 12.3714 12.3104 13.2299 12.3104 14.125C12.3104 15.0201 12.71 15.8786 13.4213 16.5115C14.1327 17.1444 15.0975 17.5 16.1035 17.5V17.5Z" stroke="black" stroke-width="1.5" stroke-miterlimit="10" stroke-linecap="round" stroke-linejoin="round"/>
<path d="M3.45978 15.115V13.135C3.45978 11.965 4.53449 10.9975 5.86208 10.9975C8.15058 10.9975 9.08621 9.55749 7.93564 7.79124C7.27817 6.77874 7.67012 5.46249 8.8207 4.87749L11.0081 3.76374C12.0069 3.23499 13.2966 3.54999 13.8908 4.43874L14.0299 4.65249C15.1678 6.41874 17.0391 6.41874 18.1897 4.65249L18.3287 4.43874C18.923 3.54999 20.2127 3.23499 21.2115 3.76374L23.3989 4.87749C24.5494 5.46249 24.9414 6.77874 24.2839 7.79124C23.1333 9.55749 24.069 10.9975 26.3575 10.9975C27.6724 10.9975 28.7598 11.9537 28.7598 13.135V15.115C28.7598 16.285 27.6851 17.2525 26.3575 17.2525C24.069 17.2525 23.1333 18.6925 24.2839 20.4587C24.9414 21.4825 24.5494 22.7875 23.3989 23.3725L21.2115 24.4862C20.2127 25.015 18.923 24.7 18.3287 23.8112L18.1897 23.5975C17.0517 21.8312 15.1805 21.8312 14.0299 23.5975L13.8908 23.8112C13.2966 24.7 12.0069 25.015 11.0081 24.4862L8.8207 23.3725C8.26956 23.0901 7.86683 22.6248 7.7009 22.0785C7.53497 21.5322 7.6194 20.9497 7.93564 20.4587C9.08621 18.6925 8.15058 17.2525 5.86208 17.2525C4.53449 17.2525 3.45978 16.285 3.45978 15.115V15.115Z" stroke="black" stroke-width="1.5" stroke-miterlimit="10" stroke-linecap="round" stroke-linejoin="round"/>
</svg>
