<svg width="31" height="28" viewBox="0 0 31 28" fill="none" xmlns="http://www.w3.org/2000/svg">
<path d="M21.0012 4.74996C23.4541 4.74996 25.4265 6.51621 25.4265 8.68746C25.4265 10.8137 23.53 12.5462 21.1656 12.625C21.0564 12.6137 20.9461 12.6137 20.8369 12.625M23.4415 22.75C24.3518 22.5812 25.2116 22.255 25.9196 21.7712C27.892 20.455 27.892 18.2837 25.9196 16.9675C25.2242 16.495 24.3771 16.18 23.4794 16M11.8346 12.4787C11.7081 12.4675 11.5564 12.4675 11.4173 12.4787C9.96608 12.4349 8.59101 11.8901 7.58329 10.9599C6.57557 10.0297 6.01435 8.78697 6.01847 7.49496C6.01847 4.73871 8.52192 2.49996 11.6323 2.49996C13.1195 2.47609 14.5564 2.97886 15.627 3.89767C16.6975 4.81648 17.3141 6.07607 17.3409 7.39933C17.3677 8.7226 16.8027 10.0011 15.77 10.9537C14.7374 11.9063 13.3218 12.4548 11.8346 12.4787ZM5.51272 16.63C2.45295 18.4525 2.45295 21.4225 5.51272 23.2337C8.98973 25.3037 14.692 25.3037 18.169 23.2337C21.2288 21.4112 21.2288 18.4412 18.169 16.63C14.7047 14.5712 9.00238 14.5712 5.51272 16.63V16.63Z" stroke="black" stroke-width="1.5" stroke-linecap="round" stroke-linejoin="round"/>
</svg>
